<?xml version="1.0" standalone="no"?>
<!DOCTYPE svg PUBLIC "-//W3C//DTD SVG 20010904//EN"
 "http://www.w3.org/TR/2001/REC-SVG-20010904/DTD/svg10.dtd">
<svg version="1.0" xmlns="http://www.w3.org/2000/svg"
 width="700.000000pt" height="700.000000pt" viewBox="0 0 700.000000 700.000000"
 preserveAspectRatio="xMidYMid meet">
<metadata>
Created by potrace 1.11, written by Peter Selinger 2001-2013
</metadata>
<g transform="translate(0.000000,700.000000) scale(0.100000,-0.100000)"
fill="#000000" stroke="none">
<path d="M1224 6349 c-319 -31 -595 -269 -674 -583 -20 -78 -20 -113 -20
-2493 l0 -2413 215 0 215 0 0 2378 c0 2141 2 2384 16 2432 34 116 119 200 235
234 50 15 265 16 2304 14 l2250 -3 56 -26 c79 -37 133 -90 171 -167 l33 -67 3
-2397 2 -2398 215 0 215 0 -2 2438 -3 2437 -31 87 c-108 302 -361 500 -676
528 -125 11 -4407 11 -4524 -1z"/>
<path d="M2500 4221 c-83 -27 -132 -55 -194 -112 -88 -80 -163 -201 -196 -317
-9 -30 -200 -945 -200 -957 0 -2 -26 -18 -57 -35 -75 -43 -170 -140 -210 -216
-62 -117 -68 -157 -68 -474 0 -314 4 -343 61 -469 43 -94 149 -202 240 -245
l61 -28 6 -108 c6 -118 18 -152 67 -193 42 -36 89 -47 200 -47 111 0 158 11
200 47 46 39 61 76 67 174 l6 89 1017 0 1017 0 6 -89 c3 -49 12 -103 21 -119
21 -40 69 -79 114 -92 49 -13 207 -13 257 1 89 25 145 126 145 262 l0 64 63
31 c76 38 172 123 221 195 19 30 48 90 63 133 l28 79 0 305 c0 337 -3 362 -68
485 -41 77 -146 183 -219 220 -55 29 -58 32 -68 80 -5 27 -46 238 -90 468 -82
424 -93 468 -158 592 -44 83 -153 197 -228 237 -111 60 -82 58 -1109 57 -873
0 -944 -1 -995 -18z m1894 -427 c25 -10 74 -95 91 -159 17 -66 145 -719 145
-741 0 -12 -179 -14 -1130 -14 -675 0 -1130 4 -1130 9 0 17 139 685 155 746
18 67 56 139 83 154 18 11 1758 16 1786 5z m-2097 -1519 c87 -26 153 -121 153
-221 0 -79 -61 -172 -134 -205 -80 -36 -188 -19 -250 39 -37 35 -76 118 -76
163 0 105 80 204 185 230 47 11 68 10 122 -6z m2604 -10 c15 -8 42 -33 61 -55
77 -89 77 -211 -1 -301 -128 -150 -365 -78 -397 120 -17 107 66 222 181 252
39 10 121 2 156 -16z"/>
</g>
</svg>
